<svg width="239" height="147" viewBox="0 0 239 147" fill="none" xmlns="http://www.w3.org/2000/svg">
<path d="M53.664 120C50.784 120 47.936 119.168 45.12 117.504C42.368 115.904 38.848 113.408 34.56 110.016C31.36 107.456 28.608 105.376 26.304 103.776C24.064 102.24 21.6 100.928 18.912 99.84C16.288 98.752 13.6 98.208 10.848 98.208C9.888 98.208 9.152 98.24 8.64 98.304L22.944 31.776C18.656 33.504 15.328 36.16 12.96 39.744C10.656 43.264 9.504 47.584 9.504 52.704C9.504 55.072 9.728 56.736 10.176 57.696C10.624 58.592 10.848 59.104 10.848 59.232C7.392 59.232 4.8 58.528 3.072 57.12C1.408 55.648 0.576 53.248 0.576 49.92C0.576 45.824 2.24 41.856 5.568 38.016C8.96 34.112 13.28 30.976 18.528 28.608C23.776 26.176 29.024 24.96 34.272 24.96C35.168 24.96 36.448 25.024 38.112 25.152L23.328 94.08C25.12 94.528 26.944 95.168 28.8 96C30.72 96.896 33.024 98.08 35.712 99.552C39.872 101.792 43.424 103.488 46.368 104.64C49.312 105.856 52.384 106.464 55.584 106.464C58.464 106.464 61.152 105.952 63.648 104.928C63.136 109.6 61.984 113.28 60.192 115.968C58.464 118.656 56.288 120 53.664 120ZM52.407 42.816C50.295 42.816 48.503 42.08 47.031 40.608C45.559 39.136 44.823 37.344 44.823 35.232C44.823 33.12 45.559 31.328 47.031 29.856C48.503 28.32 50.295 27.552 52.407 27.552C54.519 27.552 56.311 28.32 57.783 29.856C59.319 31.328 60.087 33.12 60.087 35.232C60.087 37.344 59.319 39.136 57.783 40.608C56.311 42.08 54.519 42.816 52.407 42.816ZM45.879 96.576C42.807 96.576 40.311 95.616 38.391 93.696C36.535 91.776 35.607 88.896 35.607 85.056C35.607 83.456 35.863 81.376 36.375 78.816L42.903 48H56.727L49.815 80.64C49.559 81.6 49.431 82.624 49.431 83.712C49.431 84.992 49.719 85.92 50.295 86.496C50.935 87.008 51.959 87.264 53.367 87.264C55.223 87.264 56.951 86.496 58.551 84.96C60.151 83.36 61.303 81.312 62.007 78.816H66.039C63.671 85.728 60.631 90.432 56.919 92.928C53.207 95.36 49.527 96.576 45.879 96.576ZM78.9608 120C75.8888 120 73.3288 119.2 71.2808 117.6C69.2328 116 68.2088 113.696 68.2088 110.688C68.2088 107.04 69.6808 104.096 72.6248 101.856C75.5688 99.68 79.3128 97.856 83.8568 96.384L85.0088 91.296C81.7448 94.816 77.9048 96.576 73.4888 96.576C69.8408 96.576 66.8008 95.328 64.3688 92.832C61.9367 90.336 60.7207 86.432 60.7207 81.12C60.7207 76.384 61.6488 71.424 63.5048 66.24C65.4248 60.992 68.2408 56.576 71.9528 52.992C75.7288 49.344 80.2088 47.52 85.3928 47.52C88.0168 47.52 89.9688 47.968 91.2488 48.864C92.5288 49.76 93.1688 50.944 93.1688 52.416V52.992L94.2248 48H108.049L98.5448 92.544C101.617 91.52 104.081 89.984 105.937 87.936C107.793 85.888 109.361 82.848 110.641 78.816H114.673C112.945 84.512 110.609 88.704 107.665 91.392C104.721 94.016 101.393 95.808 97.6808 96.768L96.2408 103.68C94.9608 109.888 92.7528 114.144 89.6168 116.448C86.4808 118.816 82.9288 120 78.9608 120ZM79.7288 87.264C81.2008 87.264 82.7048 86.592 84.2408 85.248C85.7768 83.904 86.8328 82.08 87.4088 79.776L92.3048 57.024C92.3048 56.256 91.9848 55.488 91.3448 54.72C90.7048 53.888 89.7128 53.472 88.3688 53.472C85.8088 53.472 83.5048 54.976 81.4568 57.984C79.4088 60.928 77.8088 64.512 76.6568 68.736C75.5048 72.896 74.9288 76.576 74.9288 79.776C74.9288 82.976 75.3768 85.024 76.2728 85.92C77.2328 86.816 78.3848 87.264 79.7288 87.264ZM76.7528 112.512C77.8408 112.512 78.8968 111.776 79.9208 110.304C80.9448 108.832 81.7448 106.72 82.3208 103.968L82.8968 101.184C76.6248 103.488 73.4888 106.208 73.4888 109.344C73.4888 110.176 73.7768 110.912 74.3528 111.552C74.9288 112.192 75.7288 112.512 76.7528 112.512ZM168.993 96.576C165.089 96.576 162.209 95.552 160.353 93.504C158.561 91.392 157.665 88.8 157.665 85.728C157.665 84.384 157.825 82.88 158.145 81.216C158.465 79.488 158.785 77.824 159.105 76.224C159.489 74.624 159.745 73.6 159.873 73.152C160.385 70.912 160.865 68.704 161.313 66.528C161.761 64.352 161.985 62.592 161.985 61.248C161.985 57.984 160.833 56.352 158.529 56.352C156.865 56.352 155.393 57.184 154.113 58.848C152.833 60.448 151.809 62.56 151.041 65.184L144.513 96H130.689L137.697 62.88C137.889 62.112 137.985 61.312 137.985 60.48C137.985 57.664 137.025 56.256 135.105 56.256C133.313 56.256 131.745 57.088 130.401 58.752C129.121 60.352 128.097 62.496 127.329 65.184L120.801 96H106.977L117.153 48H130.977L129.921 52.992C133.185 49.344 137.089 47.52 141.633 47.52C147.265 47.52 150.561 50.272 151.521 55.776C155.041 50.336 159.489 47.616 164.865 47.616C168.129 47.616 170.721 48.512 172.641 50.304C174.561 52.096 175.521 54.816 175.521 58.464C175.521 60.32 175.297 62.4 174.849 64.704C174.401 66.944 173.761 69.696 172.929 72.96C172.417 74.944 171.937 76.896 171.489 78.816C171.105 80.672 170.913 82.144 170.913 83.232C170.913 84.512 171.201 85.504 171.777 86.208C172.353 86.912 173.345 87.264 174.753 87.264C176.673 87.264 178.209 86.592 179.361 85.248C180.513 83.84 181.665 81.696 182.817 78.816H186.849C184.481 85.856 181.729 90.592 178.593 93.024C175.521 95.392 172.321 96.576 168.993 96.576ZM194.333 96.576C190.685 96.576 187.645 95.328 185.213 92.832C182.78 90.336 181.564 86.432 181.564 81.12C181.564 76.384 182.493 71.424 184.349 66.24C186.269 60.992 189.085 56.576 192.797 52.992C196.573 49.344 201.053 47.52 206.237 47.52C208.861 47.52 210.813 47.968 212.093 48.864C213.373 49.76 214.013 50.944 214.013 52.416V53.088L215.069 48H228.893L221.981 80.64C221.725 81.6 221.597 82.624 221.597 83.712C221.597 84.992 221.885 85.92 222.461 86.496C223.101 87.008 224.125 87.264 225.533 87.264C226.429 87.264 227.133 87.136 227.645 86.88C226.237 90.464 224.893 92.992 223.613 94.464C222.333 95.872 220.477 96.576 218.045 96.576C215.421 96.576 213.277 95.808 211.613 94.272C210.013 92.672 209.021 90.464 208.637 87.648C204.733 93.6 199.965 96.576 194.333 96.576ZM200.573 87.264C202.173 87.264 203.741 86.528 205.277 85.056C206.877 83.52 207.965 81.44 208.541 78.816L213.149 57.12C213.149 56.288 212.829 55.488 212.189 54.72C211.549 53.888 210.557 53.472 209.213 53.472C206.653 53.472 204.349 54.976 202.301 57.984C200.253 60.928 198.653 64.512 197.501 68.736C196.349 72.896 195.773 76.576 195.773 79.776C195.773 82.976 196.221 85.024 197.117 85.92C198.077 86.816 199.229 87.264 200.573 87.264Z" fill="#EDC4B3"/>
<path d="M116.424 137.768C112.808 137.768 110.152 136.856 108.456 135.032C106.76 133.208 105.912 130.184 105.912 125.96C105.912 122.6 106.472 118.984 107.592 115.112C108.744 111.24 110.568 107.928 113.064 105.176C115.592 102.392 118.792 101 122.664 101C125.064 101 127 101.528 128.472 102.584C129.944 103.64 130.68 105.256 130.68 107.432C130.68 108.808 130.408 109.896 129.864 110.696C129.32 111.464 128.472 111.848 127.32 111.848C126.168 111.848 125.256 111.432 124.584 110.6C125.16 110.312 125.672 109.736 126.12 108.872C126.568 108.008 126.792 107.112 126.792 106.184C126.792 105.32 126.552 104.616 126.072 104.072C125.624 103.528 124.888 103.256 123.864 103.256C122.168 103.256 120.552 104.424 119.016 106.76C117.48 109.064 116.232 111.976 115.272 115.496C114.344 119.016 113.88 122.408 113.88 125.672C113.88 128.104 114.296 129.96 115.128 131.24C115.96 132.52 117.464 133.16 119.64 133.16C121.528 133.16 123.272 132.744 124.872 131.912C126.472 131.08 127.848 129.896 129 128.36L130.104 128.84C129.304 130.856 128.12 132.536 126.552 133.88C124.984 135.224 123.304 136.216 121.512 136.856C119.72 137.464 118.024 137.768 116.424 137.768ZM146.187 137.288C144.235 137.288 142.795 136.776 141.867 135.752C140.971 134.696 140.523 133.4 140.523 131.864C140.523 131.192 140.603 130.44 140.763 129.608C140.923 128.744 141.083 127.912 141.243 127.112C141.435 126.312 141.563 125.8 141.627 125.576C141.883 124.456 142.123 123.352 142.347 122.264C142.571 121.176 142.683 120.296 142.683 119.624C142.683 117.992 142.107 117.176 140.955 117.176C140.123 117.176 139.387 117.592 138.747 118.424C138.107 119.224 137.595 120.28 137.211 121.592L133.947 137H127.035L133.995 104.36L141.099 103.4L138.507 115.496C140.107 113.704 141.979 112.808 144.123 112.808C145.755 112.808 147.051 113.256 148.011 114.152C148.971 115.048 149.451 116.408 149.451 118.232C149.451 119.16 149.339 120.2 149.115 121.352C148.891 122.472 148.571 123.848 148.155 125.48C147.899 126.472 147.659 127.448 147.435 128.408C147.243 129.336 147.147 130.072 147.147 130.616C147.147 131.256 147.291 131.752 147.579 132.104C147.867 132.456 148.363 132.632 149.067 132.632C150.027 132.632 150.795 132.296 151.371 131.624C151.947 130.92 152.523 129.848 153.099 128.408H155.115C153.931 131.928 152.555 134.296 150.987 135.512C149.451 136.696 147.851 137.288 146.187 137.288ZM159.958 137.288C157.59 137.288 155.75 136.68 154.438 135.464C153.126 134.216 152.47 132.28 152.47 129.656C152.47 127.448 152.902 125.016 153.766 122.36C154.63 119.704 156.038 117.416 157.99 115.496C159.942 113.544 162.422 112.568 165.43 112.568C168.95 112.568 170.71 114.104 170.71 117.176C170.71 118.968 170.198 120.616 169.174 122.12C168.15 123.624 166.79 124.84 165.094 125.768C163.398 126.664 161.59 127.176 159.67 127.304C159.606 128.264 159.574 128.904 159.574 129.224C159.574 130.792 159.846 131.864 160.39 132.44C160.934 132.984 161.814 133.256 163.03 133.256C164.758 133.256 166.23 132.856 167.446 132.056C168.694 131.256 170.054 130.04 171.526 128.408H173.158C169.606 134.328 165.206 137.288 159.958 137.288ZM160.054 125C161.238 124.936 162.358 124.52 163.414 123.752C164.502 122.984 165.366 122.008 166.006 120.824C166.678 119.64 167.014 118.392 167.014 117.08C167.014 115.768 166.614 115.112 165.814 115.112C164.662 115.112 163.526 116.12 162.406 118.136C161.318 120.152 160.534 122.44 160.054 125ZM177.276 137.288C175.452 137.288 173.932 136.664 172.716 135.416C171.5 134.168 170.892 132.216 170.892 129.56C170.892 127.192 171.356 124.712 172.284 122.12C173.244 119.496 174.652 117.288 176.508 115.496C178.396 113.672 180.636 112.76 183.228 112.76C184.54 112.76 185.516 112.984 186.156 113.432C186.796 113.88 187.116 114.472 187.116 115.208V115.544L187.644 113H194.556L191.1 129.32C190.972 129.8 190.908 130.312 190.908 130.856C190.908 132.232 191.564 132.92 192.876 132.92C193.772 132.92 194.54 132.504 195.18 131.672C195.852 130.84 196.38 129.752 196.764 128.408H198.78C197.596 131.864 196.124 134.216 194.364 135.464C192.636 136.68 190.892 137.288 189.132 137.288C187.788 137.288 186.7 136.92 185.868 136.184C185.068 135.416 184.588 134.312 184.428 132.872C183.5 134.184 182.46 135.256 181.308 136.088C180.188 136.888 178.844 137.288 177.276 137.288ZM180.396 132.632C181.196 132.632 181.98 132.264 182.748 131.528C183.548 130.76 184.092 129.72 184.38 128.408L186.684 117.56C186.684 117.144 186.524 116.744 186.204 116.36C185.884 115.944 185.388 115.736 184.716 115.736C183.436 115.736 182.284 116.488 181.26 117.992C180.236 119.464 179.436 121.256 178.86 123.368C178.284 125.448 177.996 127.288 177.996 128.888C177.996 130.488 178.22 131.512 178.668 131.96C179.148 132.408 179.724 132.632 180.396 132.632ZM201.533 137.288C199.997 137.288 198.749 136.808 197.789 135.848C196.861 134.888 196.397 133.448 196.397 131.528C196.397 130.728 196.525 129.688 196.781 128.408L199.661 114.92H198.077L198.461 113H200.045L201.485 106.376L208.589 105.416L206.957 113H209.837L209.453 114.92H206.573L203.501 129.32C203.373 129.8 203.309 130.312 203.309 130.856C203.309 131.496 203.453 131.96 203.741 132.248C204.061 132.504 204.573 132.632 205.277 132.632C206.205 132.632 207.069 132.248 207.869 131.48C208.669 130.68 209.245 129.656 209.597 128.408H211.613C210.429 131.864 208.909 134.216 207.053 135.464C205.197 136.68 203.357 137.288 201.533 137.288ZM215.05 137.288C213.514 137.288 212.218 137 211.162 136.424C210.106 135.816 209.322 135.048 208.81 134.12C208.298 133.16 208.042 132.168 208.042 131.144C208.042 130.088 208.298 129.176 208.81 128.408C209.29 127.608 209.882 127.032 210.586 126.68C211.834 124.44 212.922 122.184 213.85 119.912C214.778 117.608 215.658 115.128 216.49 112.472L223.594 111.512C223.754 115.608 224.026 120.04 224.41 124.808C224.57 126.728 224.65 128.12 224.65 128.984C224.65 130.936 224.154 132.536 223.162 133.784C222.17 135.032 220.938 135.928 219.466 136.472C218.026 137.016 216.554 137.288 215.05 137.288ZM213.514 133.496C214.698 133.496 215.69 133.144 216.49 132.44C217.29 131.736 217.69 130.6 217.69 129.032C217.69 128.072 217.594 126.728 217.402 125C217.082 121.352 216.874 118.904 216.778 117.656C216.01 120.184 214.714 123.208 212.89 126.728C213.626 127.112 213.994 127.672 213.994 128.408C213.994 129.016 213.786 129.56 213.37 130.04C212.986 130.52 212.49 130.76 211.882 130.76C211.21 130.76 210.778 130.552 210.586 130.136C210.586 131.288 210.81 132.136 211.258 132.68C211.738 133.224 212.49 133.496 213.514 133.496Z" fill="#E6B8A2"/>
</svg>
